<?xml version="1.0" encoding="UTF-8" standalone="no"?>
<svg width="272px" height="272px" viewBox="0 0 272 272" version="1.1" xmlns="http://www.w3.org/2000/svg" xmlns:xlink="http://www.w3.org/1999/xlink" xmlns:sketch="http://www.bohemiancoding.com/sketch/ns">
    <title>flask-oauthlib</title>
    <description>Created with Sketch (http://www.bohemiancoding.com/sketch)</description>
    <defs></defs>
    <g id="Page-1" stroke="none" stroke-width="1" fill="none" fill-rule="evenodd" sketch:type="MSPage">
        <g id="oauth" sketch:type="MSLayerGroup" transform="translate(8.000303, 6.624741)">
            <path d="M118.987882,0.372949573 C175.783756,-3.5652519 213.442593,24.2283737 234.975027,58.0916807 C245.771663,75.0706759 256.364791,100.858355 256.413633,127.354242 C256.465902,156.1427 247.139665,181.073075 234.975027,199.365233 C222.472351,218.166374 206.30139,233.695107 186.0517,243.891502 C152.202532,260.936048 104.896987,261.402188 73.9119269,244.990873 C39.4046778,226.714568 12.8732304,200.628268 3.00030658,155.389078 C-0.950748028,137.285005 -1.40489224,113.892722 4.09967831,93.8225473 C5.3914188,89.1144428 7.73883023,84.1595582 9.59696554,79.5302863 C18.5264689,57.2840752 33.7253045,37.9392444 52.4737497,24.5595562 C60.0074023,19.183517 69.1468403,13.8366117 77.2104706,10.2672952 C87.2436301,5.82653608 104.136081,1.40248591 118.987882,0.372949573 L118.987882,0.372949573 Z" id="path690" stroke="#979797" fill="#FFFFFF" sketch:type="MSShapeGroup"></path>
            <path d="M226.722456,130.55553 C226.722456,184.233662 183.207729,227.74539 129.530454,227.74539 C75.8531792,227.74539 32.3393078,184.233662 32.3393078,130.55553 C32.3393078,76.878684 75.8531792,33.3635273 129.530454,33.3635273 C183.2073,33.3635273 226.722456,76.878684 226.722456,130.55553 L226.722456,130.55553 Z" id="path692" stroke="#979797" fill="#000000" sketch:type="MSShapeGroup"></path>
            <path d="M118.987882,0.372949573 C175.783756,-3.5652519 213.442593,24.2283737 234.975027,58.0916807 C245.771663,75.0706759 256.364791,100.858355 256.413633,127.354242 C256.465902,156.1427 247.139665,181.073075 234.975027,199.365233 C222.472351,218.166374 206.30139,233.695107 186.0517,243.891502 C152.202532,260.936048 104.896987,261.402188 73.9119269,244.990873 C39.4046778,226.714568 12.8732304,200.628268 3.00030658,155.389078 C-0.950748028,137.285005 -1.40489224,113.892722 4.09967831,93.8225473 C5.3914188,89.1144428 7.73883023,84.1595582 9.59696554,79.5302863 C18.5264689,57.2840752 33.7253045,37.9392444 52.4737497,24.5595562 C60.0074023,19.183517 69.1468403,13.8366117 77.2104706,10.2672952 C87.2436301,5.82653608 104.136081,1.40248591 118.987882,0.372949573 L118.987882,0.372949573 Z M99.7480195,9.71803782 C78.6521642,15.1874765 63.1842696,24.9862804 49.7253204,35.5541304 C30.3175092,50.792812 17.9450786,72.0583288 10.6963373,97.6703483 C2.63184996,126.164898 7.81209312,160.64644 18.9420537,182.324542 C30.4837431,204.805538 45.9807729,222.256243 67.8653824,234.546413 C89.1566054,246.503259 119.102703,254.180867 150.321261,248.288989 C178.058333,243.054334 199.124198,230.971099 216.285708,213.107808 C239.246553,189.207398 257.70066,145.185829 245.420344,98.7697201 C242.137652,86.3642998 237.84599,73.4348999 231.127654,62.4891676 C227.497928,56.5758672 222.171588,50.758537 216.835393,44.8987914 C196.69624,22.7823957 164.146525,3.72419107 122.285997,6.41949418 C114.319622,6.93233438 107.318518,7.75493521 99.7480195,9.71803782 L99.7480195,9.71803782 Z" id="path694" stroke="#979797" fill="#000000" sketch:type="MSShapeGroup"></path>
            <g id="g698" transform="translate(7.711839, 12.852918)" stroke="#FFFFFF" stroke-width="2" sketch:type="MSShapeGroup">
                <path d="M127.69635,234.266014 L240.005784,121.95828" id="line700"></path>
                <path d="M117.877842,225.371638 L230.6774,112.57378" id="line702"></path>
                <path d="M108.059334,216.478123 L221.349463,103.189709" id="line704"></path>
                <path d="M98.2408177,207.583748 L212.021079,93.8056283" id="line706"></path>
                <path d="M88.4227341,198.689805 L202.693124,84.4211281" id="line708"></path>
                <path d="M78.604222,189.79629 L193.364325,75.0370521" id="line710"></path>
                <path d="M68.7857099,180.901914 L184.03637,65.6529761" id="line712"></path>
                <path d="M58.9671978,172.007971 L174.707571,56.2684673" id="line714"></path>
                <path d="M49.1486858,163.114028 L165.379617,46.8843913" id="line716"></path>
                <path d="M39.3306021,154.219665 L156.051233,37.5003153" id="line718"></path>
                <path d="M29.5120913,145.326151 L146.72285,28.1162393" id="line720"></path>
                <path d="M19.693578,136.432208 L137.394899,18.7317352" id="line722"></path>
                <path d="M9.87506589,127.537832 L128.066529,9.34765922" id="line724"></path>
                <path d="M0.056553807,118.643889 L118.738145,-0.0364167958" id="line726"></path>
            </g>
            <g id="g728" transform="translate(7.711839, 10.282290)" stroke="#FFFFFF" stroke-width="2" sketch:type="MSShapeGroup">
                <path d="M0.0184224026,122.349873 L114.572448,236.909047" id="line730"></path>
                <path d="M9.30824336,112.927246 L124.085055,227.709611" id="line732"></path>
                <path d="M18.5980622,103.504606 L133.597662,218.509335" id="line734"></path>
                <path d="M27.8878831,94.0819707 L143.11069,209.30992" id="line736"></path>
                <path d="M37.1772731,84.6593396 L152.622869,200.109644" id="line738"></path>
                <path d="M46.4670928,75.2366956 L162.136337,190.9098" id="line740"></path>
                <path d="M55.7569124,65.8140644 L171.648949,181.709957" id="line742"></path>
                <path d="M65.0463079,56.391429 L181.161556,172.509681" id="line744"></path>
                <path d="M74.3361233,46.9687979 L190.674583,163.309824" id="line746"></path>
                <path d="M83.625943,37.5461581 L200.186762,154.109981" id="line748"></path>
                <path d="M92.9157627,28.1235219 L209.699803,144.910133" id="line750"></path>
                <path d="M102.205158,18.7008881 L219.212423,135.709857" id="line752"></path>
                <path d="M111.494969,9.27868071 L228.725004,126.510433" id="line754"></path>
                <path d="M120.784798,-0.143955145 L238.238057,117.310157" id="line756"></path>
            </g>
            <path d="M210.238735,45.4484773 C200.130598,35.3403399 187.703328,26.2317495 172.85881,20.7117551 C157.471891,14.9899666 140.066171,10.1670408 119.537568,11.9163528 C86.836614,14.70377 63.8766253,29.375627 46.4267767,46.547849 C34.2042981,58.5753871 25.0104486,73.3140804 18.9416253,90.5240036 C10.0309732,115.793701 10.5716618,145.620265 20.5906829,171.330397 C29.1367343,193.260849 43.1243772,210.949337 62.9177812,224.651639 C81.525269,237.533483 108.231519,247.524227 138.226887,244.990873 C174.760646,241.905263 201.491746,223.161961 219.03328,201.564405 C223.521596,196.039269 227.984205,189.793929 230.576683,182.324971 C233.116892,176.943362 234.360219,173.28493 235.524284,171.330825 C240.396481,160.41337 242.977819,148.894387 243.769572,136.150073 C246.205242,96.9514295 231.12337,66.3335411 210.238735,45.4484773 L210.238735,45.4484773 Z M199.471661,164.874694 C199.401826,165.02379 199.339274,165.162604 199.266439,165.316413 C197.454147,170.502655 194.33212,174.839303 191.19424,178.676393 C178.926348,193.673435 160.23403,206.688522 134.685419,208.831569 C113.70867,210.589878 95.0326317,203.653039 82.0205432,194.708112 C70.7132093,186.934963 62.1178876,177.313104 56.0906227,165.749564 C55.723023,165.053781 52.2226851,156.989294 52.2124026,156.634547 C47.4374618,141.823876 47.0231623,118.008725 51.9240638,103.717321 C55.194759,94.1790076 60.6457748,83.8587947 67.8653824,75.6824852 C77.8334193,64.3927173 87.8087397,57.1585428 103.596249,52.0451361 C110.804717,49.7101494 117.257849,47.3336042 126.133798,47.0979633 C147.778482,46.5217143 169.819472,56.2399719 181.653784,66.887083 C192.529253,76.67132 204.923962,95.7303814 208.039991,113.611667 C211.246849,132.016075 207.824487,149.98519 199.471661,164.874694 L199.471661,164.874694 Z" id="path762" stroke="#979797" fill="#000000" sketch:type="MSShapeGroup"></path>
            <g id="g764" transform="translate(83.545352, 77.118608)" sketch:type="MSShapeGroup">
                <path d="M57.872639,105.40987 C55.9668777,105.40987 54.2944343,102.034636 53.7107566,97.0107724 L51.5880695,78.9229798 L40.9692717,78.9229798 L38.9970233,96.8458238 C38.4017027,101.967371 36.716544,105.395731 34.8009781,105.395731 C34.341083,105.395731 33.8842518,105.192223 33.4431998,104.792062 C31.1535288,102.869661 29.8536586,95.9773801 30.5551442,89.4368467 L39.5180437,10.0374439 C40.1000363,4.98658909 41.8133831,1.46354397 43.6849816,1.46354397 L48.4509168,1.46354397 C50.3330858,1.46354397 52.0462794,4.92660778 52.6169354,9.8853484 L62.0429472,89.255189 C62.7966727,95.7443099 61.5485829,102.710282 59.2622821,104.791634 C58.8102,105.202077 58.3427983,105.40987 57.872639,105.40987 L57.872639,105.40987 L57.872639,105.40987 Z" id="path766" stroke="#979797" fill="#FFFFFF"></path>
                <path d="M48.4510699,2.74842933 C50.1083469,2.74842933 51.6628292,5.79033865 52.1797134,10.2790829 L61.6069507,89.659206 C62.2799418,95.453829 61.1922484,101.682888 59.1204224,103.568872 C58.7061798,103.94504 58.2856561,104.124556 57.872639,104.124556 C56.2196515,104.124556 54.6863103,101.250594 54.1481319,96.6140389 L51.9208117,77.637666 L40.6299421,77.637666 L38.5578097,96.4679416 C38.0154949,101.133631 36.4657617,104.109989 34.8012845,104.109989 C34.3983784,104.109989 33.989038,103.936043 33.5853659,103.568872 C31.5132335,101.828985 30.3739131,95.5994979 30.9955834,89.8053033 L39.9563382,10.4238949 C40.4736819,5.93515067 41.9762307,2.74842933 43.6851348,2.74842933 L48.4510699,2.74842933 L48.4510699,2.74842933 Z M48.4510699,0.177801742 L43.6849816,0.177801742 C41.5832823,0.177801742 39.7332844,3.97847463 39.0814344,9.63514065 L30.1189945,89.031116 L30.117003,89.0486819 L30.1151646,89.0662479 C29.3416768,96.2772867 30.7754404,103.877776 33.3119106,106.022964 C33.7955512,106.459114 34.2966561,106.680188 34.8012845,106.680188 C36.9161587,106.680188 38.7771867,102.895367 39.4319474,97.2626939 L39.4342454,97.2434142 L39.4363901,97.2237061 L41.3089078,80.2078652 L51.255174,80.2078652 L53.2750665,97.4152178 C53.9189503,102.962632 55.7671098,106.694755 57.8729454,106.694755 C58.3913615,106.694755 58.9067137,106.465541 59.4046015,106.013539 C61.9323395,103.712827 63.3124845,96.0202239 62.4813948,88.864882 L53.0535447,9.47833236 C52.4203847,4.00161028 50.5285642,0.177801742 48.4510699,0.177801742 L48.4510699,0.177801742 L48.4510699,0.177801742 Z" id="path768" fill="#000000"></path>
            </g>
        </g>
        <g id="Flask" sketch:type="MSLayerGroup" transform="translate(75.000000, 27.000000)" stroke="#979797" fill="#FFFFFF">
            <path d="M7.05219372,15.1285029 C7.05219372,14.960502 7.02886062,14.8158368 6.98219372,14.6945029 C6.93552682,14.5731689 6.8375278,14.4658367 6.68819372,14.3725029 C6.53885964,14.2791691 6.33352836,14.1998365 6.07219372,14.1345029 C5.81085908,14.0691692 5.47486244,13.9991699 5.06419372,13.9245029 C4.87752612,13.8685026 4.78419372,13.7005043 4.78419372,13.4205029 L4.78419372,13.1545029 C4.78419372,13.0705025 4.8028602,12.9818367 4.84019372,12.8885029 C5.6428644,12.9445032 6.35219064,12.9818361 6.96819372,13.0005029 C7.5841968,13.0191696 8.10685824,13.0285029 8.53619372,13.0285029 L14.2761937,13.0285029 C15.1348647,13.0285029 15.867524,13.0005032 16.4741937,12.9445029 C17.0808634,12.8885026 17.4868594,12.8605029 17.6921937,12.8605029 C17.8975281,12.8605029 18.0468599,12.944502 18.1401937,13.1125029 C18.196194,13.261837 18.2428602,13.5371675 18.2801937,13.9385029 C18.3175272,14.3398382 18.3828599,14.7551674 18.4761937,15.1845029 C18.532194,15.5018378 18.5975267,15.8098347 18.6721937,16.1085029 C18.7468608,16.407171 18.8588596,16.7711674 19.0081937,17.2005029 C18.9335267,17.2378364 18.8355277,17.2751694 18.7141937,17.3125029 C18.5928598,17.3498364 18.4761943,17.3685029 18.3641937,17.3685029 C18.1588594,17.3685029 18.0188608,17.2845037 17.9441937,17.1165029 C17.7201926,16.6311671 17.5008615,16.2158379 17.2861937,15.8705029 C17.071526,15.5251678 16.8288617,15.2451706 16.5581937,15.0305029 C16.2875257,14.8158351 15.9701955,14.6618367 15.6061937,14.5685029 C15.2421919,14.4751691 14.798863,14.4285029 14.2761937,14.4285029 L10.5801937,14.4285029 L10.5801937,21.5125029 L14.4441937,21.5125029 C14.7615286,21.5125029 14.990193,21.3585044 15.1301937,21.0505029 C15.2701944,20.7425013 15.3868599,20.280506 15.4801937,19.6645029 C15.536194,19.421835 15.7135256,19.3005029 16.0121937,19.3005029 C16.068194,19.3005029 16.1568598,19.3051695 16.2781937,19.3145029 C16.3995277,19.3238363 16.4881934,19.3378361 16.5441937,19.3565029 C16.5068602,19.7858384 16.4741939,20.2851667 16.4461937,20.8545029 C16.4181936,21.4238391 16.4041937,21.9045009 16.4041937,22.2965029 C16.4041937,22.6325046 16.413527,23.0291673 16.4321937,23.4865029 C16.4508605,23.9438385 16.4881934,24.4618333 16.5441937,25.0405029 C16.4881934,25.0778364 16.4041943,25.1011695 16.2921937,25.1105029 C16.1801932,25.1198363 16.096194,25.1245029 16.0401937,25.1245029 C15.7228588,25.1245029 15.536194,24.9938375 15.4801937,24.7325029 C15.4055267,24.1351666 15.2935278,23.6825044 15.1441937,23.3745029 C14.9948596,23.0665013 14.7615286,22.9125029 14.4441937,22.9125029 L10.5801937,22.9125029 L10.5801937,29.1845029 C10.5801937,29.3711705 10.6455264,29.5251689 10.7761937,29.6465029 C10.906861,29.7678368 11.0841926,29.8705025 11.3081937,29.9545029 C11.5321948,30.0385033 11.7935256,30.103836 12.0921937,30.1505029 C12.3908619,30.1971698 12.708192,30.2485026 13.0441937,30.3045029 C13.2681948,30.3231696 13.3801937,30.4818347 13.3801937,30.7805029 C13.3801937,30.8365032 13.3755271,30.9298356 13.3661937,31.0605029 C13.3568603,31.1911702 13.3428605,31.2938358 13.3241937,31.3685029 C13.0628591,31.3685029 12.8015284,31.3638363 12.5401937,31.3545029 C12.2788591,31.3451695 12.0175284,31.3311696 11.7561937,31.3125029 C11.270858,31.2751694 10.7528631,31.2518363 10.2021937,31.2425029 C9.6515243,31.2331695 9.10552976,31.2285029 8.56419372,31.2285029 C8.30285908,31.2285029 8.01819526,31.2331695 7.71019372,31.2425029 C7.40219218,31.2518363 7.0801954,31.2658361 6.74419372,31.2845029 C6.40819204,31.3031696 6.07686202,31.3171695 5.75019372,31.3265029 C5.42352542,31.3358363 5.12019512,31.3498361 4.84019372,31.3685029 C4.8028602,31.2938358 4.78419372,31.1958368 4.78419372,31.0745029 L4.78419372,30.8085029 C4.78419372,30.5285015 4.87752612,30.3791696 5.06419372,30.3605029 C5.6801968,30.2111688 6.16552528,30.0665036 6.52019372,29.9265029 C6.87486216,29.7865022 7.05219372,29.5298381 7.05219372,29.1565029 L7.05219372,15.1285029 Z" id="F" sketch:type="MSShapeGroup" transform="translate(11.784194, 22.360503) rotate(-37.000000) translate(-11.784194, -22.360503) "></path>
            <path d="M30.916,19.62 C30.916,20.012002 31.1679975,20.2733327 31.672,20.404 C32.1760025,20.5346673 33.0066609,20.6 34.164,20.6 L35.228,20.6 C35.694669,20.6 36.1006649,20.5486672 36.446,20.446 C36.7913351,20.3433328 37.0946654,20.1706679 37.356,19.928 C37.6173346,19.6853321 37.8553323,19.3726686 38.07,18.99 C38.2846677,18.6073314 38.4946656,18.145336 38.7,17.604 C38.7560003,17.4546659 38.8959989,17.38 39.12,17.38 C39.2133338,17.38 39.3253327,17.4079997 39.456,17.464 C39.5866673,17.5200003 39.7173327,17.5759997 39.848,17.632 C39.6986659,18.2293363 39.5633339,18.8779965 39.442,19.578 C39.3206661,20.2780035 39.2133338,20.9639966 39.12,21.636 C39.1013332,21.8600011 39.0406672,21.9999997 38.938,22.056 C38.8353328,22.1120003 38.7280006,22.14 38.616,22.14 C38.4666659,22.14 38.256668,22.1306668 37.986,22.112 C37.715332,22.0933332 37.4213349,22.0793334 37.104,22.07 C36.7866651,22.0606666 36.4646683,22.0466668 36.138,22.028 C35.8113317,22.0093332 35.5266679,22 35.284,22 L28.928,22 C28.386664,22 27.7660035,22.0139999 27.066,22.042 C26.3659965,22.0700001 25.7360028,22.1026665 25.176,22.14 C25.1386665,22.065333 25.12,21.9673339 25.12,21.846 L25.12,21.58 C25.12,21.2999986 25.2133324,21.1506668 25.4,21.132 C26.1093369,21.0013327 26.6179985,20.8613341 26.926,20.712 C27.2340015,20.5626659 27.388,20.3013352 27.388,19.928 L27.388,5.9 C27.388,5.7133324 27.3693335,5.55933394 27.332,5.438 C27.2946665,5.31666606 27.2200006,5.2093338 27.108,5.116 C26.9959994,5.0226662 26.8233345,4.94333366 26.59,4.878 C26.3566655,4.81266634 26.044002,4.75200028 25.652,4.696 C25.4653324,4.63999972 25.372,4.48133464 25.372,4.22 L25.372,3.968 C25.372,3.85599944 25.3906665,3.7533338 25.428,3.66 C26.0253363,3.69733352 26.6599966,3.72999986 27.332,3.758 C28.0040034,3.78600014 28.6013307,3.8 29.124,3.8 C29.3853346,3.8 29.6839983,3.79533338 30.02,3.786 C30.3560017,3.77666662 30.7059982,3.76733338 31.07,3.758 C31.4340018,3.74866662 31.7979982,3.73466676 32.162,3.716 C32.5260018,3.69733324 32.8573318,3.67866676 33.156,3.66 C33.1746668,3.7533338 33.1886666,3.85599944 33.198,3.968 C33.2073334,4.08000056 33.212,4.16399972 33.212,4.22 C33.212,4.48133464 33.1186676,4.63999972 32.932,4.696 C32.1293293,4.80800056 31.592668,4.95266578 31.322,5.13 C31.051332,5.30733422 30.916,5.5826648 30.916,5.956 L30.916,19.62 Z" id="L" sketch:type="MSShapeGroup" transform="translate(32.540000, 12.900000) rotate(-23.000000) translate(-32.540000, -12.900000) "></path>
            <path d="M62.918303,12.332 L57.038303,12.332 L55.582303,16.224 C55.5263027,16.3173338 55.4889698,16.4199994 55.470303,16.532 C55.4516362,16.6440006 55.442303,16.7279997 55.442303,16.784 C55.442303,16.9893344 55.540302,17.1573327 55.736303,17.288 C55.932304,17.4186673 56.3289667,17.5306662 56.926303,17.624 C57.1876376,17.6613335 57.318303,17.8386651 57.318303,18.156 C57.318303,18.2866673 57.2996365,18.4453324 57.262303,18.632 C56.7583005,18.5946665 56.2263058,18.5620001 55.666303,18.534 C55.1063002,18.5059999 54.555639,18.492 54.014303,18.492 C53.6409678,18.492 53.2489717,18.5013332 52.838303,18.52 C52.4276343,18.5386668 51.9703055,18.5759997 51.466303,18.632 C51.4289695,18.557333 51.410303,18.4733338 51.410303,18.38 L51.410303,18.156 C51.410303,17.8013316 51.5316351,17.6146668 51.774303,17.596 C52.3529726,17.4839994 52.7683017,17.3626673 53.020303,17.232 C53.2723043,17.1013327 53.4729689,16.8773349 53.622303,16.56 L60.370303,0.432 C60.5196371,0.11466508 60.7436348,-0.044 61.042303,-0.044 C61.1356368,-0.044 61.2289692,-0.03933338 61.322303,-0.03 C61.4156368,-0.02066662 61.5183024,-0.00666676 61.630303,0.012 L68.378303,16.644 C68.4903036,16.9240014 68.7049681,17.1339993 69.022303,17.274 C69.3396379,17.4140007 69.6849678,17.5119997 70.058303,17.568 C70.3383044,17.6240003 70.478303,17.8106651 70.478303,18.128 C70.478303,18.2773341 70.4596365,18.4453324 70.422303,18.632 C69.8249667,18.5946665 69.2369726,18.5620001 68.658303,18.534 C68.0796334,18.5059999 67.5383055,18.492 67.034303,18.492 C66.7729684,18.492 66.4556382,18.4966666 66.082303,18.506 C65.7089678,18.5153334 65.326305,18.5293332 64.934303,18.548 C64.542301,18.5666668 64.1549716,18.5806666 63.772303,18.59 C63.3896344,18.5993334 63.0676376,18.6133332 62.806303,18.632 C62.7689695,18.557333 62.750303,18.4733338 62.750303,18.38 L62.750303,18.156 C62.750303,17.9879992 62.7829693,17.8620004 62.848303,17.778 C62.9136367,17.6939996 62.983636,17.6426668 63.058303,17.624 C63.5436388,17.5306662 63.9029685,17.4233339 64.136303,17.302 C64.3696375,17.1806661 64.486303,16.9986679 64.486303,16.756 C64.486303,16.6439994 64.4583033,16.5040008 64.402303,16.336 L62.918303,12.332 Z M62.386303,10.932 L60.006303,4.632 L57.570303,10.932 L62.386303,10.932 Z" id="A" sketch:type="MSShapeGroup"></path>
            <path d="M93.63544,8.336 C93.4674391,8.39200028 93.2901076,8.42 93.10344,8.42 C92.8421053,8.42 92.6554405,8.36866718 92.54344,8.266 C92.4314394,8.16333282 92.3567735,8.05600056 92.31944,7.944 C91.8901045,6.87999468 91.3347767,6.114669 90.65344,5.648 C89.9721032,5.181331 89.0621123,4.948 87.92344,4.948 C87.0274355,4.948 86.2667764,5.16733114 85.64144,5.606 C85.0161035,6.04466886 84.70344,6.71199552 84.70344,7.608 C84.70344,8.29867012 84.9414376,8.8539979 85.41744,9.274 C85.8934423,9.6940021 86.4907697,10.0626651 87.20944,10.38 C87.9281102,10.6973349 88.7027691,11.0053318 89.53344,11.304 C90.3641108,11.6026682 91.1387697,11.9759978 91.85744,12.424 C92.5761102,12.8720022 93.1734376,13.4413299 93.64944,14.132 C94.1254423,14.8226701 94.36344,15.7093279 94.36344,16.792 C94.36344,17.5013369 94.2421078,18.1919966 93.99944,18.864 C93.7567721,19.5360034 93.3741092,20.1286641 92.85144,20.642 C92.3287707,21.1553359 91.6661106,21.5659985 90.86344,21.874 C90.0607693,22.1820015 89.0994456,22.336 87.97944,22.336 C86.7474338,22.336 85.6461115,22.200668 84.67544,21.93 C83.7047684,21.659332 82.9021098,21.3653349 82.26744,21.048 C82.2114397,20.2453293 82.1227739,19.4566705 82.00144,18.682 C81.880106,17.9073295 81.744774,17.1560036 81.59544,16.428 C81.7821076,16.353333 81.9967721,16.316 82.23944,16.316 C82.4634411,16.316 82.6314394,16.3579996 82.74344,16.442 C82.8554405,16.5260004 82.9487729,16.6706656 83.02344,16.876 C83.2661078,17.5853369 83.5367718,18.1966641 83.83544,18.71 C84.1341081,19.2233359 84.479438,19.6433317 84.87144,19.97 C85.2634419,20.2966683 85.7161041,20.5346659 86.22944,20.684 C86.7427759,20.8333341 87.3354366,20.908 88.00744,20.908 C88.5861095,20.908 89.0807712,20.8286675 89.49144,20.67 C89.9021087,20.5113325 90.2381053,20.3013346 90.49944,20.04 C90.7607746,19.7786654 90.9567726,19.4706684 91.08744,19.116 C91.2181073,18.7613316 91.28344,18.3973352 91.28344,18.024 C91.28344,17.2213293 91.0547756,16.5913356 90.59744,16.134 C90.1401043,15.6766644 89.5707767,15.2940015 88.88944,14.986 C88.2081032,14.6779985 87.4707773,14.388668 86.67744,14.118 C85.8841027,13.847332 85.1467767,13.5020021 84.46544,13.082 C83.7841032,12.6619979 83.2147756,12.12067 82.75744,11.458 C82.3001043,10.79533 82.07144,9.9040056 82.07144,8.784 C82.07144,8.0373296 82.2067719,7.34200322 82.47744,6.698 C82.748108,6.05399678 83.1447707,5.49400238 83.66744,5.018 C84.1901092,4.54199762 84.8201029,4.1640014 85.55744,3.884 C86.294777,3.6039986 87.1394352,3.464 88.09144,3.464 C88.8754439,3.464 89.6641027,3.54799916 90.45744,3.716 C91.2507773,3.88400084 92.1514349,4.16399804 93.15944,4.556 C93.1967735,5.1160028 93.2574395,5.7459965 93.34144,6.446 C93.4254404,7.1460035 93.5234394,7.7759972 93.63544,8.336 L93.63544,8.336 Z" id="S" sketch:type="MSShapeGroup" transform="translate(88.553440, 12.900000) rotate(18.000000) translate(-88.553440, -12.900000) "></path>
            <path d="M108.640754,22.28 L108.640754,29.364 C108.640754,29.5506676 108.650087,29.7046661 108.668754,29.826 C108.687421,29.9473339 108.748087,30.0546662 108.850754,30.148 C108.953421,30.2413338 109.102753,30.3206663 109.298754,30.386 C109.494755,30.4513337 109.770086,30.5119997 110.124754,30.568 C110.330088,30.6053335 110.432754,30.7453321 110.432754,30.988 C110.432754,31.0440003 110.428087,31.1373327 110.418754,31.268 C110.409421,31.3986673 110.395421,31.501333 110.376754,31.576 C109.779418,31.5386665 109.172757,31.5060001 108.556754,31.478 C107.940751,31.4499999 107.371423,31.436 106.848754,31.436 C106.326085,31.436 105.728757,31.4499999 105.056754,31.478 C104.384751,31.5060001 103.75009,31.5386665 103.152754,31.576 C103.115421,31.501333 103.096754,31.4033339 103.096754,31.282 L103.096754,31.016 C103.096754,30.7359986 103.190086,30.5866668 103.376754,30.568 C103.768756,30.5119997 104.08142,30.4513337 104.314754,30.386 C104.548089,30.3206663 104.720753,30.2413338 104.832754,30.148 C104.944755,30.0546662 105.019421,29.9473339 105.056754,29.826 C105.094088,29.7046661 105.112754,29.5506676 105.112754,29.364 L105.112754,15.336 C105.112754,15.1493324 105.094088,14.9953339 105.056754,14.874 C105.019421,14.7526661 104.944755,14.6453338 104.832754,14.552 C104.720753,14.4586662 104.548089,14.3793337 104.314754,14.314 C104.08142,14.2486663 103.768756,14.1880003 103.376754,14.132 C103.190086,14.0759997 103.096754,13.9173346 103.096754,13.656 L103.096754,13.404 C103.096754,13.2919994 103.115421,13.1893338 103.152754,13.096 C103.75009,13.1333335 104.384751,13.1659999 105.056754,13.194 C105.728757,13.2220001 106.326085,13.236 106.848754,13.236 C107.371423,13.236 107.978084,13.2220001 108.668754,13.194 C109.359424,13.1659999 110.003418,13.1333335 110.600754,13.096 C110.619421,13.1893338 110.633421,13.2919994 110.642754,13.404 C110.652087,13.5160006 110.656754,13.5999997 110.656754,13.656 C110.656754,13.9173346 110.563422,14.0759997 110.376754,14.132 C109.984752,14.1880003 109.672089,14.2486663 109.438754,14.314 C109.20542,14.3793337 109.028088,14.4586662 108.906754,14.552 C108.78542,14.6453338 108.710754,14.7526661 108.682754,14.874 C108.654754,14.9953339 108.640754,15.1493324 108.640754,15.336 L108.640754,21.804 L114.716754,15.728 C115.108756,15.3733316 115.304754,15.0560014 115.304754,14.776 C115.304754,14.4586651 114.884758,14.2533338 114.044754,14.16 C113.83942,14.16 113.736754,13.964002 113.736754,13.572 L113.736754,13.362 C113.736754,13.2779996 113.755421,13.1893338 113.792754,13.096 C114.315423,13.1333335 114.861418,13.1659999 115.430754,13.194 C116.00009,13.2220001 116.508752,13.236 116.956754,13.236 C117.162088,13.236 117.395419,13.2313334 117.656754,13.222 C117.918089,13.2126666 118.184086,13.2033334 118.454754,13.194 C118.725422,13.1846666 118.986753,13.1706668 119.238754,13.152 C119.490755,13.1333332 119.710086,13.1146668 119.896754,13.096 C119.934088,13.1893338 119.952754,13.2779996 119.952754,13.362 L119.952754,13.572 C119.952754,13.9453352 119.850088,14.1506665 119.644754,14.188 C119.122085,14.3000006 118.702089,14.4259993 118.384754,14.566 C118.067419,14.7060007 117.759422,14.9253318 117.460754,15.224 L111.776754,20.74 L118.440754,29.14 C118.776756,29.5693355 119.112752,29.8726658 119.448754,30.05 C119.784756,30.2273342 120.204752,30.3626662 120.708754,30.456 C120.970089,30.4933335 121.100754,30.6613318 121.100754,30.96 C121.100754,31.0160003 121.096087,31.1139993 121.086754,31.254 C121.077421,31.3940007 121.054088,31.501333 121.016754,31.576 C120.736753,31.5573332 120.424089,31.5386668 120.078754,31.52 C119.733419,31.5013332 119.383422,31.4873334 119.028754,31.478 C118.674086,31.4686666 118.333422,31.4593334 118.006754,31.45 C117.680086,31.4406666 117.395422,31.436 117.152754,31.436 C116.630085,31.436 115.990758,31.4499999 115.234754,31.478 C114.47875,31.5060001 113.774091,31.5386665 113.120754,31.576 C113.102087,31.501333 113.088087,31.4033339 113.078754,31.282 C113.069421,31.1606661 113.064754,31.0720003 113.064754,31.016 C113.064754,30.7173318 113.176753,30.568 113.400754,30.568 C113.848756,30.5119997 114.16142,30.4373338 114.338754,30.344 C114.516088,30.2506662 114.604754,30.1293341 114.604754,29.98 C114.604754,29.8679994 114.572088,29.7606672 114.506754,29.658 C114.44142,29.5553328 114.352755,29.4293341 114.240754,29.28 L108.640754,22.28 Z" id="K" sketch:type="MSShapeGroup" transform="translate(112.098754, 22.336000) rotate(33.000000) translate(-112.098754, -22.336000) "></path>
        </g>
        <g id="OAuthlib" sketch:type="MSLayerGroup" transform="translate(58.000000, 195.000000)" stroke="#979797" fill="#FFFFFF">
            <path d="M21.5507812,12.9179688 C21.5507812,15.6992327 20.7539142,17.9081949 19.1601562,19.5449219 C17.5663983,21.1816488 15.3632953,22 12.5507812,22 C9.74607973,22 7.54688297,21.1816488 5.953125,19.5449219 C4.35936703,17.9081949 3.5625,15.6992327 3.5625,12.9179688 C3.5625,10.1132672 4.35936703,7.89649252 5.953125,6.26757812 C7.54688297,4.63866373 9.74607973,3.82421875 12.5507812,3.82421875 C15.3476702,3.82421875 17.546867,4.63866373 19.1484375,6.26757812 C20.750008,7.89649252 21.5507812,10.1132672 21.5507812,12.9179688 Z M15.5859375,17.3359375 C16.0234397,16.8046848 16.3476552,16.177738 16.5585938,15.4550781 C16.7695323,14.7324183 16.875,13.8828174 16.875,12.90625 C16.875,11.8593698 16.7539075,10.9687537 16.5117188,10.234375 C16.26953,9.49999633 15.953127,8.90625227 15.5625,8.453125 C15.1640605,7.98437266 14.7050807,7.6445323 14.1855469,7.43359375 C13.666013,7.2226552 13.1250028,7.1171875 12.5625,7.1171875 C11.9921846,7.1171875 11.4550806,7.21874898 10.9511719,7.421875 C10.4472631,7.62500102 9.98437711,7.96093516 9.5625,8.4296875 C9.17187305,8.86718969 8.85351686,9.47069928 8.60742188,10.2402344 C8.36132689,11.0097695 8.23828125,11.9023387 8.23828125,12.9179688 C8.23828125,13.9570364 8.35742068,14.8417932 8.59570312,15.5722656 C8.83398557,16.302738 9.14843555,16.8984352 9.5390625,17.359375 C9.92968945,17.8203148 10.3867161,18.1601552 10.9101562,18.3789062 C11.4335964,18.5976573 11.9843721,18.7070312 12.5625,18.7070312 C13.1406279,18.7070312 13.6914036,18.5957042 14.2148438,18.3730469 C14.7382839,18.1503895 15.1953105,17.8046898 15.5859375,17.3359375 Z" id="O" sketch:type="MSShapeGroup" transform="translate(13.160156, 12.912109) rotate(45.000000) translate(-13.160156, -12.912109) "></path>
            <path d="M37.828125,33 L33.1757812,33 L31.96875,29.4726562 L25.5,29.4726562 L24.2929688,33 L19.7578125,33 L26.203125,15.5507812 L31.3828125,15.5507812 L37.828125,33 Z M30.8789062,26.2734375 L28.734375,20.015625 L26.5898438,26.2734375 L30.8789062,26.2734375 Z" id="A" sketch:type="MSShapeGroup" transform="translate(28.792969, 24.275391) rotate(33.000000) translate(-28.792969, -24.275391) "></path>
            <path d="M54.7455299,36.5957031 C54.7455299,38.7519639 54.0892865,40.4042911 52.7767799,41.5527344 C51.4642734,42.7011776 49.530699,43.2753906 46.9759987,43.2753906 C44.4212984,43.2753906 42.4896771,42.7011776 41.1810768,41.5527344 C39.8724765,40.4042911 39.2181862,38.7558701 39.2181862,36.6074219 L39.2181862,25.4628906 L43.7416237,25.4628906 L43.7416237,36.3496094 C43.7416237,37.5605529 43.9955274,38.4628877 44.5033424,39.0566406 C45.0111575,39.6503936 45.835368,39.9472656 46.9759987,39.9472656 C48.1010043,39.9472656 48.9232617,39.6621122 49.4427956,39.0917969 C49.9623294,38.5214815 50.2220924,37.6074282 50.2220924,36.3496094 L50.2220924,25.4628906 L54.7455299,25.4628906 L54.7455299,36.5957031 Z" id="U" sketch:type="MSShapeGroup" transform="translate(47.972092, 34.369141) rotate(20.000000) translate(-47.972092, -34.369141) "></path>
            <path d="M76.2109375,33.375 L70.7617188,33.375 L70.7617188,47.4492188 L66.2617188,47.4492188 L66.2617188,33.375 L60.8125,33.375 L60.8125,30 L76.2109375,30 L76.2109375,33.375 Z" id="T" sketch:type="MSShapeGroup" transform="translate(68.511719, 38.724609) rotate(6.000000) translate(-68.511719, -38.724609) "></path>
            <path d="M97.8710938,47.4492188 L93.3710938,47.4492188 L93.3710938,39.7617188 L86.7265625,39.7617188 L86.7265625,47.4492188 L82.2265625,47.4492188 L82.2265625,30 L86.7265625,30 L86.7265625,36.3867188 L93.3710938,36.3867188 L93.3710938,30 L97.8710938,30 L97.8710938,47.4492188 Z" id="H" sketch:type="MSShapeGroup" transform="translate(90.048828, 38.724609) rotate(-8.000000) translate(-90.048828, -38.724609) "></path>
            <path d="M117.950343,41.859052 L105.364405,41.859052 L105.364405,24.4098332 L109.864405,24.4098332 L109.864405,38.484052 L117.950343,38.484052 L117.950343,41.859052 Z" id="L" sketch:type="MSShapeGroup" transform="translate(111.657374, 33.134443) rotate(-20.000000) translate(-111.657374, -33.134443) "></path>
            <path d="M130.588793,34.7787243 L120.370043,34.7787243 L120.370043,31.6849743 L123.229418,31.6849743 L123.229418,20.4232556 L120.370043,20.4232556 L120.370043,17.3295056 L130.588793,17.3295056 L130.588793,20.4232556 L127.729418,20.4232556 L127.729418,31.6849743 L130.588793,31.6849743 L130.588793,34.7787243 Z" id="I" sketch:type="MSShapeGroup" transform="translate(125.370043, 25.829506) rotate(-33.000000) translate(-125.370043, -25.829506) "></path>
            <path d="M149.358989,17.2070312 C149.358989,18.0507855 149.189069,18.8046842 148.849223,19.46875 C148.509378,20.1328158 148.042585,20.6835916 147.448832,21.1210938 C146.761329,21.6367213 146.005477,22.0039052 145.181254,22.2226562 C144.357031,22.4414073 143.31212,22.5507812 142.046489,22.5507812 L134.429301,22.5507812 L134.429301,5.1015625 L141.202739,5.1015625 C142.608996,5.1015625 143.638282,5.14843703 144.290629,5.2421875 C144.942976,5.33593797 145.589454,5.54296715 146.230082,5.86328125 C146.894148,6.19922043 147.388284,6.65038779 147.712504,7.21679688 C148.036725,7.78320596 148.198832,8.42968387 148.198832,9.15625 C148.198832,10.0000042 147.976178,10.7441374 147.530864,11.3886719 C147.085549,12.0332063 146.456649,12.5351545 145.644145,12.8945312 L145.644145,12.9882812 C146.784776,13.2148449 147.689064,13.6835902 148.357036,14.3945312 C149.025008,15.1054723 149.358989,16.0429629 149.358989,17.2070312 Z M143.593364,10.0351562 C143.593364,9.7460923 143.521099,9.4570327 143.376567,9.16796875 C143.232035,8.8789048 142.976178,8.6640632 142.608989,8.5234375 C142.280862,8.39843688 141.872663,8.33007818 141.384379,8.31835938 C140.896096,8.30664057 140.210556,8.30078125 139.327739,8.30078125 L138.905864,8.30078125 L138.905864,11.9921875 L139.608989,11.9921875 C140.31993,11.9921875 140.925392,11.9804689 141.425395,11.9570312 C141.925397,11.9335936 142.319925,11.8554694 142.608989,11.7226562 C143.015241,11.5429679 143.280863,11.3105483 143.405864,11.0253906 C143.530864,10.7402329 143.593364,10.4101581 143.593364,10.0351562 Z M144.694926,17.1367188 C144.694926,16.5820285 144.587505,16.1542984 144.372661,15.8535156 C144.157816,15.5527329 143.792585,15.3281257 143.276957,15.1796875 C142.925393,15.0781245 142.441023,15.0234375 141.823832,15.015625 C141.206642,15.0078125 140.562117,15.0039062 139.890239,15.0039062 L138.905864,15.0039062 L138.905864,19.3515625 L139.233989,19.3515625 C140.49962,19.3515625 141.405861,19.3476563 141.952739,19.3398438 C142.499616,19.3320312 143.003518,19.2304697 143.464457,19.0351562 C143.93321,18.8398428 144.255472,18.5800797 144.431254,18.2558594 C144.607036,17.931639 144.694926,17.5585959 144.694926,17.1367188 Z" id="B" sketch:type="MSShapeGroup" transform="translate(142.456645, 13.826172) rotate(-42.000000) translate(-142.456645, -13.826172) "></path>
        </g>
    </g>
</svg>